<?xml version="1.0" standalone="no"?>
<!DOCTYPE svg PUBLIC "-//W3C//DTD SVG 20010904//EN"
 "http://www.w3.org/TR/2001/REC-SVG-20010904/DTD/svg10.dtd">
<svg version="1.0" xmlns="http://www.w3.org/2000/svg"
 width="500.000000pt" height="500.000000pt" viewBox="0 0 500.000000 500.000000"
 preserveAspectRatio="xMidYMid meet">

<g transform="translate(0.000000,500.000000) scale(0.100000,-0.100000)"
fill="#FF3900" stroke="none">
<path d="M2456 3858 c-11 -16 -16 -46 -16 -103 0 -94 15 -125 60 -125 50 0 60
21 60 124 0 77 -3 96 -18 109 -26 24 -68 21 -86 -5z"/>
<path d="M2141 3674 c-28 -36 -26 -70 5 -101 20 -20 31 -24 57 -19 64 12 87
77 42 121 -33 34 -77 33 -104 -1z"/>
<path d="M2750 3680 c-56 -56 4 -145 80 -119 52 19 65 67 29 113 -26 33 -79
36 -109 6z"/>
<path d="M1802 3594 c-38 -26 -28 -59 39 -130 64 -66 86 -79 117 -69 16 4 42
43 42 62 0 13 -145 153 -159 153 -9 0 -27 -7 -39 -16z"/>
<path d="M3078 3542 c-49 -50 -68 -76 -68 -95 0 -27 32 -57 61 -57 15 0 159
140 159 155 0 3 -5 16 -11 28 -30 56 -60 49 -141 -31z"/>
<path d="M2385 3500 c-174 -35 -341 -163 -420 -322 -35 -72 -64 -183 -65 -245
0 -35 29 -73 55 -73 30 0 55 38 55 83 1 183 154 380 343 439 72 22 200 26 267
8 206 -55 370 -262 370 -464 0 -43 29 -71 65 -62 35 9 42 35 33 121 -26 241
-204 444 -444 505 -79 21 -186 24 -259 10z"/>
<path d="M1715 3245 c-30 -30 -32 -64 -4 -99 41 -53 129 -18 129 51 0 32 -42
73 -75 73 -14 0 -37 -11 -50 -25z"/>
<path d="M3181 3244 c-12 -15 -21 -34 -21 -44 0 -34 39 -70 76 -70 63 0 95 65
58 118 -23 33 -86 31 -113 -4z"/>
<path d="M2373 3229 c-119 -46 -209 -169 -204 -277 2 -43 75 -49 91 -8 31 83
49 112 87 146 129 114 330 51 379 -117 12 -43 21 -54 41 -59 38 -10 58 7 61
54 6 83 -80 202 -183 252 -70 35 -197 39 -272 9z"/>
<path d="M1542 2998 c-17 -17 -15 -64 3 -81 8 -8 55 -22 106 -32 86 -15 92
-15 110 1 26 24 25 70 -3 88 -23 14 -132 36 -179 36 -14 0 -30 -5 -37 -12z"/>
<path d="M3311 2995 c-39 -8 -70 -20 -78 -31 -20 -28 -16 -62 11 -79 22 -15
32 -15 113 0 48 10 94 22 101 27 15 13 16 70 0 86 -15 15 -62 14 -147 -3z"/>
<path d="M2084 2781 c-22 -10 -64 -39 -92 -65 -74 -65 -106 -79 -164 -74 -40
4 -57 12 -88 43 -31 30 -43 36 -64 31 -30 -7 -50 -39 -41 -65 12 -38 78 -91
133 -107 100 -29 185 -3 291 89 35 31 76 59 91 62 38 8 84 -13 154 -74 83 -71
118 -86 196 -86 78 1 118 20 208 99 35 31 74 59 87 62 40 10 90 -14 161 -77
67 -59 132 -89 194 -89 77 0 190 63 211 117 12 32 -4 61 -37 69 -21 5 -33 -1
-63 -30 -70 -69 -151 -62 -242 19 -78 69 -131 95 -197 95 -69 0 -108 -17 -175
-78 -69 -62 -105 -82 -152 -82 -47 0 -68 12 -132 72 -29 27 -72 58 -95 68 -54
25 -131 25 -184 1z"/>
<path d="M2108 2540 c-43 -13 -93 -47 -132 -90 -41 -46 -42 -48 -20 -78 23
-34 64 -29 104 13 18 19 52 42 75 51 37 14 46 14 76 1 19 -8 61 -38 94 -67 75
-65 126 -90 190 -90 66 0 135 33 206 98 95 87 131 89 225 16 65 -50 76 -52
104 -24 29 29 25 48 -21 92 -58 56 -128 88 -189 88 -67 0 -109 -19 -173 -78
-75 -70 -96 -82 -145 -82 -53 0 -72 10 -142 73 -30 28 -73 58 -95 68 -42 19
-111 23 -157 9z"/>
<path d="M2137 2285 c-38 -38 -6 -95 54 -95 28 0 56 -18 127 -83 59 -53 115
-77 182 -77 73 0 120 23 203 98 51 47 77 63 108 68 27 5 46 15 56 30 14 22 14
26 -1 49 -36 54 -135 24 -239 -71 -60 -56 -110 -77 -158 -67 -16 3 -58 31 -94
63 -75 66 -121 91 -180 98 -30 3 -46 0 -58 -13z"/>
<path d="M3409 1772 c-14 -12 -24 -34 -28 -63 -5 -39 -9 -44 -33 -47 -20 -2
-28 -9 -28 -23 0 -14 7 -19 30 -19 l30 0 0 -135 0 -135 25 0 25 0 0 135 0 135
45 0 c38 0 45 3 45 20 0 17 -7 20 -45 20 -44 0 -45 0 -45 34 0 43 21 60 64 53
28 -4 35 -2 39 13 7 26 0 30 -54 30 -31 0 -55 -6 -70 -18z"/>
<path d="M1238 1764 c-5 -4 -8 -99 -8 -212 l0 -204 123 4 c103 3 129 7 170 27
67 33 100 85 105 165 6 93 -32 158 -118 201 -37 19 -258 35 -272 19z m248 -63
c61 -28 89 -73 89 -143 0 -62 -17 -94 -69 -132 -22 -17 -46 -22 -122 -24 l-94
-4 0 161 0 161 78 0 c53 0 90 -6 118 -19z"/>
<path d="M2695 1758 c-138 -48 -185 -220 -93 -333 60 -72 175 -96 264 -56 51
23 61 38 40 59 -14 14 -17 14 -36 -3 -15 -13 -41 -20 -86 -23 -56 -4 -69 -1
-103 21 -98 65 -93 218 9 276 49 28 123 28 168 1 29 -18 36 -19 53 -7 18 13
18 15 1 30 -47 43 -148 59 -217 35z"/>
<path d="M1805 1663 c-69 -19 -122 -104 -110 -179 15 -105 134 -164 239 -120
41 17 52 32 36 51 -10 12 -15 12 -37 -2 -15 -10 -46 -17 -74 -17 -40 0 -54 5
-78 28 -16 15 -31 37 -34 47 -5 18 2 19 124 19 l129 0 0 33 c0 43 -30 98 -66
119 -32 19 -98 30 -129 21z m116 -72 c52 -53 42 -61 -71 -61 -91 0 -100 2
-100 19 0 10 12 30 26 45 39 38 105 37 145 -3z"/>
<path d="M3048 1654 c-48 -15 -53 -20 -42 -48 5 -14 9 -14 34 -1 70 36 160 8
160 -50 0 -24 -2 -25 -64 -25 -87 0 -125 -15 -142 -55 -28 -68 20 -125 105
-125 42 0 91 17 91 32 0 4 5 8 10 8 6 0 10 -9 10 -20 0 -13 7 -20 20 -20 19 0
20 7 20 124 0 141 -11 167 -78 186 -47 13 -66 12 -124 -6z m152 -193 c0 -55
-84 -91 -141 -61 -22 12 -26 59 -7 78 7 7 40 12 80 12 l68 0 0 -29z"/>
<path d="M3647 1656 c-69 -25 -98 -68 -99 -147 0 -88 54 -148 140 -157 81 -7
160 29 133 62 -9 11 -18 10 -51 -6 -51 -26 -102 -18 -142 22 -53 53 -43 59
100 62 l127 3 -3 35 c-5 53 -33 93 -82 118 -51 25 -70 26 -123 8z m126 -64
c51 -53 40 -62 -73 -62 -113 0 -123 8 -71 61 41 41 105 41 144 1z"/>
<path d="M2067 1578 c19 -46 49 -116 66 -156 29 -68 33 -73 60 -70 26 3 33 13
93 151 35 81 64 150 64 152 0 3 -11 5 -23 5 -21 0 -31 -16 -77 -125 -30 -69
-57 -122 -61 -117 -3 4 -28 60 -55 124 -45 109 -51 118 -76 118 l-27 0 36 -82z"/>
</g>
</svg>
